<svg xmlns="http://www.w3.org/2000/svg" viewBox="0 0 20 20" shape-rendering="crispEdges">
  <rect width="20" height="20" fill="none"/>
  <rect x="4" y="1" width="1" height="6" fill="#1f1b1a"/>
  <rect x="5" y="1" width="2" height="1" fill="#d89a59"/>
  <rect x="7" y="1" width="3" height="1" fill="#ffffff"/>
  <rect x="10" y="1" width="2" height="1" fill="#d89a59"/>
  <rect x="12" y="1" width="3" height="1" fill="#ffffff"/>
  <rect x="15" y="1" width="2" height="1" fill="#d89a59"/>
  <rect x="17" y="1" width="1" height="6" fill="#1f1b1a"/>
  <rect x="5" y="2" width="1" height="4" fill="#d89a59"/>
  <rect x="6" y="2" width="1" height="1" fill="#ffd9c3"/>
  <rect x="7" y="2" width="3" height="1" fill="#d89a59"/>
  <rect x="10" y="2" width="2" height="1" fill="#ffffff"/>
  <rect x="12" y="2" width="3" height="1" fill="#d89a59"/>
  <rect x="15" y="2" width="1" height="1" fill="#ffd9c3"/>
  <rect x="16" y="2" width="1" height="4" fill="#d89a59"/>
  <rect x="6" y="3" width="10" height="2" fill="#ffffff"/>
  <rect x="5" y="4" width="1" height="4" fill="#d89a59"/>
  <rect x="16" y="4" width="1" height="4" fill="#d89a59"/>
  <rect x="6" y="5" width="2" height="2" fill="#ffffff"/>
  <rect x="8" y="5" width="2" height="2" fill="#7c5a3d"/>
  <rect x="10" y="5" width="1" height="2" fill="#ffffff"/>
  <rect x="11" y="5" width="2" height="2" fill="#7c5a3d"/>
  <rect x="13" y="5" width="2" height="2" fill="#ffffff"/>
  <rect x="6" y="7" width="10" height="1" fill="#ffffff"/>
  <rect x="8" y="7" width="1" height="1" fill="#1f1b1a"/>
  <rect x="11" y="7" width="1" height="1" fill="#1f1b1a"/>
  <rect x="8" y="8" width="1" height="1" fill="#9a714d"/>
  <rect x="9" y="8" width="2" height="1" fill="#f0a8a1"/>
  <rect x="11" y="8" width="1" height="1" fill="#9a714d"/>
  <rect x="7" y="9" width="2" height="1" fill="#9a714d"/>
  <rect x="9" y="9" width="2" height="1" fill="#1f1b1a"/>
  <rect x="11" y="9" width="2" height="1" fill="#9a714d"/>
  <rect x="6" y="10" width="1" height="1" fill="#1f1b1a"/>
  <rect x="7" y="10" width="8" height="1" fill="#ffffff"/>
  <rect x="15" y="10" width="1" height="1" fill="#1f1b1a"/>
  <rect x="8" y="11" width="1" height="1" fill="#cfc8c0"/>
  <rect x="9" y="11" width="3" height="1" fill="#d89a59"/>
  <rect x="12" y="11" width="1" height="1" fill="#cfc8c0"/>
  <rect x="6" y="12" width="1" height="4" fill="#1f1b1a"/>
  <rect x="7" y="12" width="1" height="1" fill="#cfc8c0"/>
  <rect x="8" y="12" width="5" height="1" fill="#f6f1e8"/>
  <rect x="13" y="12" width="1" height="1" fill="#cfc8c0"/>
  <rect x="14" y="12" width="1" height="4" fill="#1f1b1a"/>
  <rect x="7" y="13" width="7" height="3" fill="#f6f1e8"/>
  <rect x="8" y="14" width="2" height="4" fill="#f6f1e8"/>
  <rect x="10" y="14" width="1" height="4" fill="#cfc8c0"/>
  <rect x="11" y="14" width="2" height="4" fill="#f6f1e8"/>
  <rect x="4" y="15" width="2" height="1" fill="#1f1b1a"/>
  <rect x="5" y="16" width="1" height="1" fill="#1f1b1a"/>
  <rect x="15" y="13" width="2" height="1" fill="#1f1b1a"/>
  <rect x="17" y="13" width="1" height="5" fill="#1f1b1a"/>
  <rect x="15" y="14" width="2" height="1" fill="#f6f1e8"/>
  <rect x="15" y="15" width="2" height="1" fill="#f6f1e8"/>
  <rect x="15" y="16" width="1" height="1" fill="#1f1b1a"/>
  <rect x="16" y="16" width="1" height="1" fill="#f6f1e8"/>
  <rect x="16" y="17" width="1" height="1" fill="#1f1b1a"/>
  <rect x="7" y="18" width="3" height="1" fill="#1f1b1a"/>
  <rect x="11" y="18" width="3" height="1" fill="#1f1b1a"/>
</svg>
