<svg width="1024" height="1024" xmlns="http://www.w3.org/2000/svg" xml:space="preserve" enable-background="new 0 0 1024 1024" version="1.1" xmlns:xlink="http://www.w3.org/1999/xlink" transform="matrix(-1,0,0,1,0,0)">
  <g>
    <title>Layer 1</title>
    <path id="svg_1" d="m680.28003,751.93384c-0.02789,8.36462 -0.02789,8.37213 -7.92291,8.37298c-22.49884,0.00251 -44.99884,-0.11749 -67.49573,0.0907c-4.72217,0.04376 -6.61029,-1.22406 -6.26007,-6.15802c0.38837,-5.47186 -0.02442,-10.99585 0.11798,-16.49176c0.08166,-3.15375 -0.99463,-4.54876 -4.31641,-4.46777c-6.66241,0.16241 -13.33282,0.13269 -19.99707,0.01581c-3.00097,-0.05262 -4.18817,1.11883 -4.11938,4.12646c0.12945,5.66339 -0.21375,11.34601 0.1095,16.99378c0.26348,4.60382 -1.38837,5.9978 -5.9806,5.9779c-36.66412,-0.15893 -73.32925,-0.0888 -109.99407,-0.09015c-4.3331,-0.00012 -8.68717,-0.27624 -12.99369,0.06006c-4.76776,0.37231 -5.94015,-1.68841 -5.87979,-6.10986c0.20465,-14.9964 -0.05676,-29.99927 0.15643,-44.99542c0.06394,-4.49573 -1.25064,-6.12183 -5.94641,-6.07178c-20.6633,0.22015 -41.33023,0.1084 -61.99585,0.09289c-6.79733,-0.00506 -6.86953,-0.11029 -6.86743,-7.07653c0.00131,-4.33307 -0.27377,-8.69037 0.09174,-12.99293c0.42215,-4.96948 -1.65177,-6.49987 -6.33795,-6.12915c-3.97522,0.31446 -8.00571,-0.11364 -11.99125,0.12647c-4.24877,0.25598 -6.10055,-1.23486 -5.88241,-5.70337c0.28403,-5.81946 -0.03623,-11.66602 0.12912,-17.49451c0.09656,-3.40283 -1.10593,-4.83453 -4.63672,-4.68689c-4.99078,0.20868 -10.00134,-0.08288 -14.99545,0.08216c-3.48896,0.11529 -4.70963,-1.33222 -4.6203,-4.74097c0.1658,-6.32855 -0.0654,-12.66711 0.07949,-18.9967c0.07428,-3.24598 -1.17746,-4.47785 -4.4143,-4.36475c-4.99372,0.1745 -10.00635,-0.12683 -14.99491,0.11072c-3.88894,0.18518 -5.42056,-1.26251 -5.28436,-5.18006c0.19681,-5.65905 -0.07797,-11.33337 0.05948,-16.99603c0.08646,-3.56256 -1.1593,-5.16766 -4.93433,-5.0097c-5.32348,0.22284 -10.66571,-0.04395 -15.99594,0.07586c-3.15274,0.07093 -4.49908,-1.12048 -4.48059,-4.37664c0.08817,-15.49872 0.10303,-30.99854 -0.00714,-46.49695c-0.02386,-3.35492 1.52359,-4.42035 4.52701,-4.40192c5.66602,0.03485 11.33935,-0.16248 16.99631,0.06604c4.01504,0.16217 5.79446,-1.1134 5.557,-5.39148c-0.29513,-5.31683 0.0889,-10.66907 -0.13354,-15.99298c-0.15674,-3.75104 1.40848,-4.97083 4.99078,-4.94006c12.99835,0.11188 25.9986,0.09716 38.99729,0.00903c3.35431,-0.0227 4.85501,1.16345 4.74646,4.67755c-0.17481,5.66083 0.20748,11.34509 -0.1117,16.99311c-0.24286,4.29718 1.45926,5.57525 5.49414,5.30224c3.98157,-0.26947 8.00955,-0.26721 11.99152,-0.00085c4.01184,0.26825 5.18738,-1.41077 5.15466,-5.23597c-0.13672,-15.99804 -0.04883,-31.99786 -0.04584,-47.99704c0.0051,-27.33193 -0.00344,-54.66391 0.02054,-81.99584c0.00598,-6.8209 0.05307,-6.82605 7.01718,-6.83997c3.8331,-0.00766 7.68088,-0.20206 11.49546,0.06604c4.08581,0.2872 5.59369,-1.1886 5.52557,-5.37183c-0.20349,-12.49606 -0.07614,-24.9975 -0.0751,-37.49685c0.00155,-18.66571 0.11941,-37.33262 -0.07178,-55.99634c-0.04767,-4.65662 1.25784,-6.76108 6.20718,-6.36166c4.30509,0.34741 8.67749,-0.16715 12.98868,0.14041c4.28204,0.30551 6.07892,-1.04294 5.81424,-5.57285c-0.3299,-5.64706 0.02527,-11.33075 -0.12009,-16.99338c-0.08276,-3.22592 1.21805,-4.42547 4.41123,-4.41702c23.99853,0.0636 47.99747,0.0632 71.99597,-0.01074c3.28458,-0.01016 4.39175,1.36484 4.30798,4.50812c-0.14206,5.32916 -0.03457,10.665 -0.02899,15.99804c0.00678,6.45816 0.00809,6.45447 6.70755,6.45356c32.49832,-0.00434 64.99667,-0.00623 97.49503,-0.00953c16.99914,-0.00174 33.99963,-0.12045 50.99652,0.07486c4.21484,0.0484 5.58874,-1.41253 5.40491,-5.49038c-0.24738,-5.48798 0.04589,-10.99817 -0.06366,-16.4954c-0.06977,-3.50262 1.13671,-5.08029 4.927,-5.06369c25.33154,0.11087 50.66406,0.09723 75.99573,0.00061c3.64141,-0.01388 4.89965,1.17954 4.88269,4.94364c-0.17951,39.82803 -0.21619,79.6568 -0.23883,119.48538c-0.00385,6.73773 0.11315,6.74322 6.91546,6.76337c4.83307,0.01434 9.67493,0.19287 14.49658,-0.039c4.11121,-0.19773 5.56122,1.37469 5.52741,5.50579c-0.15253,18.66446 -0.06769,37.33088 -0.06696,55.99659c0.00092,24.99871 -0.14508,49.99908 0.12567,74.9949c0.05634,5.20081 -1.49658,6.64575 -6.52032,6.23596c-5.79492,-0.47253 -11.6582,-0.05652 -17.48975,-0.15063c-2.98486,-0.04816 -4.19214,1.221 -4.13159,4.19915c0.11518,5.66407 0.05658,11.33216 0.03412,16.99848c-0.02582,6.49072 -0.04272,6.52826 -6.7998,6.54455c-14.1659,0.03424 -28.33375,0.15699 -42.49665,-0.04724c-4.24548,-0.06122 -6.1015,1.04657 -5.79779,5.59693c0.3432,5.14325 0.39331,10.35382 -0.02667,15.48614c-0.38275,4.67822 1.62152,5.77582 5.75781,5.48834c3.64862,-0.2536 7.34046,0.13379 10.99256,-0.09362c3.77862,-0.23542 5.03356,1.49902 4.99664,5.00836c-0.08417,7.99865 -0.02527,15.99884 -0.02472,23.99841c0.00244,34.66486 0.01361,69.32971 -0.00061,103.99457c-0.00281,6.73828 -0.05072,6.74493 -6.60291,6.76483c-3.6665,0.01117 -7.33734,0.11517 -10.9981,-0.02942c-3.05823,-0.12073 -4.14673,1.21198 -4.06592,4.16809c0.12719,4.65918 0.02301,9.32477 0.01776,14.47675m30.38739,-433.43378c0.00201,-6.83078 -0.01941,-13.66171 0.01709,-20.49231c0.01532,-2.86511 -0.66425,-4.7702 -4.16736,-4.74719c-15.99548,0.10507 -31.99194,0.09381 -47.98791,0.05609c-3.23224,-0.0076 -4.45002,1.5199 -4.4004,4.6044c0.07783,4.83081 0.01002,9.66394 0.00458,14.4961c-0.00854,7.47485 -0.06652,7.57003 -7.47839,7.57672c-32.32568,0.02917 -64.65137,0.04333 -96.97705,0.04721c-18.99555,0.00228 -37.99146,-0.09494 -56.98627,0.01541c-4.20273,0.02441 -6.12076,-1.28522 -5.8371,-5.77234c0.31473,-4.97943 -0.09979,-10.00253 0.15149,-14.98908c0.22339,-4.43289 -1.23776,-6.14794 -5.96185,-6.0888c-18.99261,0.23801 -37.98996,0.09299 -56.98553,0.10644c-11.82956,0.0084 -11.83671,0.02204 -11.83805,11.87339c-0.00326,29.15988 -0.07519,58.32022 0.0842,87.47921c0.02365,4.33115 -1.22195,6.05493 -5.67014,5.7616c-4.64468,-0.30637 -9.33074,0.07431 -13.99057,-0.08432c-3.24215,-0.11035 -4.38235,1.15994 -4.37536,4.39215c0.07538,34.9917 0.07175,69.98367 0.0166,104.97543c-0.0047,2.98792 1.09723,4.21885 4.0979,4.16803c5.83005,-0.09878 11.66687,0.11924 17.49399,-0.04214c3.68127,-0.10205 5.11349,1.48267 5.05872,5.03747c-0.08985,5.83039 0.15682,11.66974 -0.06254,17.49317c-0.15658,4.1571 1.49183,5.46686 5.57334,5.39838c12.32699,-0.20679 24.66073,0.0155 36.98947,-0.12995c3.5824,-0.0423 5.17474,1.04297 4.99026,4.8324c-0.23468,4.82068 -0.05496,9.66156 -0.05096,14.49377c0.00622,7.44935 0.00693,7.57099 7.68918,7.59186c16.48855,0.04492 32.97442,-0.31897 49.45959,-0.53784c36.31842,-0.48248 72.64783,-0.14111 108.97272,-0.14063c14.66321,0.00025 29.32721,-0.09497 43.98907,0.03956c3.76166,0.03442 5.5105,-0.9773 5.26533,-5.0907c-0.30689,-5.14722 0.15338,-10.33997 -0.14789,-15.48786c-0.25019,-4.27484 1.06018,-6.00756 5.58728,-5.78643c6.81531,0.33282 13.67053,-0.16047 20.48687,0.16174c4.49225,0.21246 6.39362,-1.06726 6.09394,-5.83978c-0.35437,-5.64283 -0.00037,-11.32673 -0.10449,-16.99012c-0.05469,-2.97479 1.16387,-4.23278 4.14434,-4.17541c5.33014,0.10266 10.66944,-0.11322 15.9936,0.09326c3.75347,0.14557 5.04467,-1.43396 4.89678,-5.03415c-0.18444,-4.49139 -0.04614,-8.99609 -0.04669,-13.49503c-0.00396,-30.15957 -0.08185,-60.31948 0.07062,-90.47827c0.0221,-4.3688 -1.32886,-6.00876 -5.71741,-5.73141c-4.64666,0.2937 -9.33001,-0.04883 -13.99133,0.08871c-3.38458,0.09989 -4.62115,-1.08279 -4.59167,-4.66891c0.20263,-24.65891 0.18829,-49.31958 0.242,-74.97983m-195.6806,405.90405c0.02752,8.25177 0.02752,8.24597 8.10199,8.21857c5.49847,-0.01862 11.01648,-0.30811 16.48968,0.05994c4.87677,0.32794 6.27869,-1.46051 6.1944,-6.24072c-0.26727,-15.15778 -0.00409,-30.32435 -0.16535,-45.48517c-0.0418,-3.92298 1.35144,-5.39325 5.23181,-5.22144c4.8227,0.2135 9.66547,0.17267 14.49256,0.0188c3.57812,-0.11401 5.12695,1.19086 5.01196,4.93677c-0.1994,6.49188 0.05768,12.99688 -0.08502,19.49182c-0.06897,3.14038 0.93884,4.57409 4.27478,4.49292c6.49438,-0.15802 12.99774,-0.15546 19.49231,-0.00324c3.4209,0.0802 4.80835,-1.21136 4.72327,-4.6773c-0.15119,-6.16102 0.20861,-12.33997 -0.08869,-18.49006c-0.21728,-4.49456 1.59625,-5.87585 5.84919,-5.68066c5.48675,0.25177 11.00634,0.27838 16.48901,-0.01868c4.8678,-0.26373 6.35663,1.74134 6.28924,6.44153c-0.21496,14.99286 0.03217,29.99219 -0.16913,44.98542c-0.05517,4.11676 1.2519,5.53466 5.40412,5.47045c13.15948,-0.20337 26.32666,-0.2268 39.48517,0.00367c4.32483,0.07568 5.79315,-1.2309 5.77978,-5.65967c-0.12781,-42.48798 -0.11499,-84.97663 0.01654,-127.46466c0.013,-4.20807 -1.43384,-5.40723 -5.49591,-5.37134c-18.99334,0.16821 -37.98895,0.08478 -56.98376,0.08337c-48.81995,-0.0036 -97.63989,-0.00525 -146.45984,-0.03039c-3.47903,-0.00177 -6.5896,-0.27741 -6.57517,4.92175c0.11945,42.98779 0.0803,85.97595 0.03162,128.96399c-0.00348,3.08521 0.96396,4.64368 4.30393,4.55017c5.49441,-0.15381 10.99905,-0.17779 16.49301,-0.026c3.51803,0.09717 4.66525,-1.40753 4.57769,-4.79346c-0.16793,-6.49377 0.06748,-12.99743 -0.07577,-19.49237c-0.07178,-3.25671 1.33243,-4.51275 4.43948,-4.48993c5.99784,0.04413 11.99973,0.10102 17.99341,-0.07312c3.72885,-0.10839 5.06241,1.59009 4.98044,5.10859c-0.11261,4.82946 -0.0398,9.66326 -0.04675,15.47045m-114.48224,-75.10095c-3.49906,-0.00079 -7.00675,-0.15588 -10.49475,0.0401c-3.64392,0.20478 -5.15696,-1.25525 -5.08423,-4.91772c0.11908,-5.99518 -0.14844,-11.99884 0.01047,-17.99201c0.10427,-3.93182 -1.56571,-5.37256 -5.37683,-5.20092c-4.15687,0.18719 -8.35608,-0.26221 -12.48725,0.11261c-5.12415,0.46484 -6.57706,-1.50599 -6.46835,-6.52772c0.29919,-13.8222 -0.0011,-27.65631 0.10989,-41.48431c0.0358,-4.45886 -1.67908,-6.42676 -6.23254,-6.15118c-3.81803,0.23095 -7.67997,-0.19409 -11.48874,0.10315c-4.67249,0.36468 -6.72156,-1.1875 -6.38104,-6.14411c0.34164,-4.9732 0.04309,-9.99097 0.00827,-14.98913c-0.02701,-3.87427 -1.92765,-5.82496 -5.87082,-5.77478c-3.99799,0.0509 -8.00095,0.12085 -11.99457,-0.02033c-3.5574,-0.12567 -4.6145,1.58777 -4.53705,4.89154c0.13663,5.82776 -0.05447,11.66248 0.01242,17.49292c0.03601,3.13757 -1.2684,4.56037 -4.47,4.50177c-4.99628,-0.09149 -9.9982,0.10547 -14.99371,-0.00384c-3.21466,-0.07032 -4.5279,1.30938 -4.4596,4.47229c0.11512,5.32947 0.15183,10.66351 0.07248,15.9934c-0.0599,4.02729 1.97272,5.76539 5.7832,5.82319c3.83127,0.05816 7.66291,0.11493 11.49451,0.1261c7.54163,0.02203 7.54944,0.00872 7.5835,7.31011c0.02408,5.16492 0.09475,10.33124 0.00647,15.49451c-0.05072,2.96613 1.23782,4.26074 4.17386,4.22894c4.83105,-0.05224 9.67306,0.19947 14.492,-0.04321c4.05023,-0.20392 5.72696,1.19733 5.55673,5.39282c-0.2294,5.65339 0.01697,11.32557 0.04401,16.98981c0.01916,4.01569 1.53662,6.11719 6.02991,5.74201c4.30185,-0.3592 8.66815,0.11364 12.98617,-0.13099c3.64548,-0.20666 5.21167,1.22937 5.21781,4.81397c0.01019,5.9964 0.19598,11.99249 0.20007,17.98883c0.00213,3.11017 1.30841,4.51843 4.5011,4.51245c20.99316,-0.03937 41.98666,-0.0307 62.9797,0.04504c3.30982,0.01197 4.33927,-1.49945 4.26944,-4.59826c-0.12756,-5.66181 -0.1968,-11.33643 0.04648,-16.99121c0.17047,-3.96125 -1.38144,-5.25586 -5.25125,-5.17804c-9.65985,0.19433 -19.32605,0.06958 -29.98776,0.0722m-13.34238,-81.86328c0.92642,1.87549 0.75678,3.90509 0.75891,5.88959c0.01523,14.15869 0.13654,28.31976 -0.10919,42.47436c-0.06461,3.72156 0.86926,4.98004 4.66739,4.91919c12.48999,-0.20032 24.98767,-0.24316 37.4765,-0.01843c4.32913,0.07782 5.95294,-1.229 5.7515,-5.67981c-0.31382,-6.93225 -0.08307,-13.88916 -0.08307,-21.27661c7.06793,-0.08765 13.46792,-1.13397 19.94296,-0.19342c3.56268,0.51752 5.25131,-0.84357 5.09207,-4.67847c-0.21402,-5.15509 -0.16794,-10.328 -0.03665,-15.48828c0.11697,-4.59802 -1.64688,-6.46362 -6.50729,-6.35181c-12.65311,0.29108 -25.31839,0.01123 -37.97602,0.17475c-4.04236,0.05212 -5.7287,-1.29938 -5.51809,-5.49121c0.26712,-5.31672 -0.07956,-10.66193 0.09759,-15.98621c0.11188,-3.36383 -1.04413,-4.87775 -4.54864,-4.85608c-13.15879,0.08118 -26.31922,0.08978 -39.47715,-0.05121c-3.01321,-0.03228 -3.67913,1.26605 -3.63037,3.8999c0.0987,5.32825 0.18872,10.66889 -0.06808,15.98749c-0.20505,4.24634 1.67377,5.4502 5.63687,5.47089c5.96146,0.03113 11.98089,-0.90106 18.53076,1.25537z" fill="#FFE7A2"></path>
    <path id="svg_2" d="m672.30571,385.2946c-0.00872,14.46237 -0.14331,28.43457 0.04859,42.40231c0.05804,4.22513 -1.10974,5.9284 -5.61139,5.85544c-14.46576,-0.23441 -28.93836,-0.18433 -43.40643,-0.0484c-3.909,0.03671 -5.72754,-1.0015 -5.6756,-5.32529c0.18994,-15.7977 0.19769,-31.60056 0.00213,-47.39807c-0.0556,-4.49124 1.74408,-5.71042 5.92664,-5.65418c12.97021,0.1745 25.94434,0.07355 38.91693,0.05393c11.02289,-0.01667 9.71161,-0.35044 9.79913,10.11426z" fill="#000000"></path>
    <path id="svg_3" d="m531.08447,433.64465c-0.99402,3.01142 -3.22857,2.55268 -5.1449,2.55643c-14.66635,0.02853 -29.33434,-0.12295 -43.99829,0.0621c-4.29202,0.0542 -5.36181,-1.6578 -5.31979,-5.63201c0.16556,-15.66471 0.20154,-31.33393 -0.01016,-46.99744c-0.06006,-4.44788 1.58325,-5.80103 5.83053,-5.75354c14.33127,0.16022 28.66645,0.14428 42.99802,-0.00598c4.24286,-0.0445 5.93408,1.41284 5.87946,5.81265c-0.20484,16.49695 -0.1308,32.99738 -0.23487,49.95779z" fill="#000000"></path>
    <path id="svg_4" d="m567.32721,478.03186c0.13422,12.14426 -1.47046,10.54388 9.97754,10.6474c4.82928,0.0437 9.66168,-0.08798 14.4881,0.03711c2.95678,0.0766 4.36908,-1.09726 4.23932,-4.08301c-0.04334,-0.99655 -0.07599,-2.01086 0.05517,-2.99457c0.46808,-3.51159 -1.76782,-8.46386 1.70349,-10.22537c4.16962,-2.1159 9.4635,-0.793 14.26502,-0.52514c1.94323,0.10836 2.15753,1.82711 2.1607,3.37982c0.01947,9.49224 -0.01013,18.98465 0.01935,28.47686c0.01062,3.40528 -2.26275,3.51188 -4.755,3.54029c-3.32496,0.03787 -7.24061,-1.11115 -7.62159,4.43127c-0.1231,1.79093 -2.32891,1.53836 -3.78271,1.54215c-10.65851,0.02771 -21.31714,-0.00003 -31.97577,0.01605c-2.36975,0.00357 -4.21759,-0.35053 -4.49646,-3.35529c-0.3346,-3.60418 -3.34045,-2.55133 -5.45929,-2.60754c-7.51819,-0.19946 -7.51739,-0.14053 -7.51093,-7.76526c0.00654,-7.82742 0.10029,-15.65643 -0.03326,-23.4815c-0.05456,-3.19745 1.11548,-4.60142 4.35553,-4.41657c2.48987,0.14206 4.99457,0.01379 7.49262,0.02243c6.794,0.02356 6.794,0.02707 6.87817,7.36087z" fill="#000000"></path>
    <rect id="svg_5" height="33" width="36" y="453.49997" x="512.66666" fill="#ffe7a2"></rect>
    <rect id="svg_6" height="33" width="36" y="453.16667" x="614.33334" fill="#ffe7a2"></rect>
  </g>
</svg>